<svg viewBox="3 3 42 42" xmlns="http://www.w3.org/2000/svg"><path d="m24 4c-11.027934 0-20 8.972074-20 20s8.972066 20 20 20 20-8.972074 20-20-8.972066-20-20-20zm0 3c9.406615 0 17 7.593391 17 17 0 7.66536-5.043061 14.122519-12 16.251953v-5.115234c0-1.910084-1.100684-3.5481-2.691406-4.363281a10 8 0 0 0 6.128906-12.052735c.443544-1.365289.939023-3.760031-.238281-5.644531-2.269874 0-3.734552 1.555914-4.433594 2.523437a10 8 0 0 0 -3.765625-.599609 10 8 0 0 0 -3.769531.59375c-.700738-.967977-2.164243-2.517578-4.429688-2.517578-1.35107 2.162645-.515861 4.488385-.068359 5.4375a10 8 0 0 0 5.949219 12.265625c-1.306141.673186-2.284358 1.894745-2.583985 3.376953h-1.314453c-1.297 0-1.800953-.527016-2.501953-1.416016-.692-.889-1.436078-1.486375-2.330078-1.734375-.482-.051-.806719.315625-.386719.640625 1.419.966 1.516938 2.547032 2.085938 3.582032.518.932 1.579296 1.771484 2.779297 1.771484h1.570312v3.251953c-6.956939-2.129434-12-8.586593-12-16.251953 0-9.406609 7.593385-17 17-17z"/></svg>