<svg viewBox="4 4 40 40" xmlns="http://www.w3.org/2000/svg"><path d="m11.5 6c-3.0197741 0-5.5 2.4802259-5.5 5.5v25c0 3.019774 2.4802259 5.5 5.5 5.5h25c3.019774 0 5.5-2.480226 5.5-5.5v-25c0-3.0197741-2.480226-5.5-5.5-5.5zm0 3h25c1.398226 0 2.5 1.101774 2.5 2.5v25c0 1.398226-1.101774 2.5-2.5 2.5h-25c-1.398226 0-2.5-1.101774-2.5-2.5v-25c0-1.398226 1.101774-2.5 2.5-2.5zm4 4a2.5 2.5 0 0 0 0 5 2.5 2.5 0 0 0 0-5zm-1.5 7c-.553 0-1 .447-1 1v13c0 .553.447 1 1 1h3c.553 0 1-.447 1-1v-13c0-.553-.447-1-1-1zm7 0c-.553 0-1 .447-1 1v13c0 .553.447 1 1 1h3c.553 0 1-.447 1-1v-7.5c0-1.379 1.121-2.5 2.5-2.5s2.5 1.121 2.5 2.5v7.5c0 .553.447 1 1 1h3c.553 0 1-.447 1-1v-8c0-3.309-2.691-6-6-6-1.538 0-2.937.586016-4 1.541016v-.541016c0-.553-.447-1-1-1z"/></svg>