<svg viewBox="4 4 40 40" xmlns="http://www.w3.org/2000/svg"><path d="m12.5 6c-3.5719381 0-6.5 2.9280619-6.5 6.5v23c0 3.571938 2.9280619 6.5 6.5 6.5h23c3.571938 0 6.5-2.928062 6.5-6.5v-23c0-3.5719381-2.928062-6.5-6.5-6.5zm0 3h23c1.950062 0 3.5 1.549938 3.5 3.5v23c0 1.950062-1.549938 3.5-3.5 3.5h-23c-1.950062 0-3.5-1.549938-3.5-3.5v-23c0-1.950062 1.549938-3.5 3.5-3.5zm1.328125 5 7.736328 11.056641-7.742187 8.943359h2.042968l6.603516-7.648438 5.351562 7.648438h6.4375l-8.232421-11.765625 7.111328-8.234375h-2l-6.013672 6.943359-4.857422-6.943359zm3.107422 1.695312h2.5625l11.652344 16.609376h-2.5625z"/></svg>